<svg width="127" height="25" viewBox="0 0 127 25" fill="none" xmlns="http://www.w3.org/2000/svg">
<path d="M6.14905 14.0909C6.26458 17.3747 8.87328 20 12.0745 20C15.2757 20 17.8844 17.3747 18 14.0909H6.14905Z" fill="#B2DAC8"/>
<path d="M0 20H11.8509C11.7354 16.7163 9.12669 14.0909 5.92546 14.0909C2.72424 14.0909 0.115528 16.7163 0 20Z" fill="white"/>
<path d="M11.8509 7.04544C11.7354 10.3292 9.12669 12.9545 5.92546 12.9545C2.72424 12.9545 0.115528 10.3292 0 7.04544H11.8509Z" fill="white"/>
<path d="M18 12.9545H6.14905C6.26458 9.67078 8.87328 7.04544 12.0745 7.04544C15.2757 7.04544 17.8844 9.67078 18 12.9545Z" fill="white"/>
<path d="M0 5.90909H11.8509C11.7354 2.62534 9.12669 0 5.92546 0C2.72424 0 0.115528 2.62534 0 5.90909Z" fill="#B2DAC8"/>
<path d="M6.14905 0C6.26458 3.28375 8.87328 5.90909 12.0745 5.90909C15.2757 5.90909 17.8844 3.28375 18 0H6.14905Z" fill="white"/>
<path d="M33.9562 18.24C32.7828 18.24 31.7762 18.0467 30.9362 17.66C30.0962 17.26 29.3962 16.7467 28.8362 16.12L29.8162 14.86C30.0295 15.1 30.2828 15.34 30.5762 15.58C30.8695 15.8067 31.1895 16.0067 31.5362 16.18C31.8962 16.3533 32.2828 16.4933 32.6962 16.6C33.1095 16.7067 33.5495 16.76 34.0162 16.76C34.6162 16.76 35.1162 16.6867 35.5162 16.54C35.9162 16.3933 36.2362 16.2133 36.4762 16C36.7162 15.7733 36.8895 15.5267 36.9962 15.26C37.1028 14.98 37.1562 14.7133 37.1562 14.46C37.1562 14.0333 37.0428 13.68 36.8162 13.4C36.5895 13.12 36.2895 12.8867 35.9162 12.7C35.5562 12.5 35.1362 12.34 34.6562 12.22C34.1895 12.0867 33.7028 11.9533 33.1962 11.82C32.7028 11.6733 32.2162 11.5133 31.7362 11.34C31.2695 11.1667 30.8495 10.9467 30.4762 10.68C30.1162 10.4 29.8228 10.06 29.5962 9.66C29.3695 9.26 29.2562 8.76 29.2562 8.16C29.2562 7.61333 29.3695 7.11333 29.5962 6.66C29.8362 6.20667 30.1562 5.82 30.5562 5.5C30.9695 5.16667 31.4562 4.91333 32.0162 4.74C32.5762 4.55333 33.1828 4.46 33.8362 4.46C34.8628 4.46 35.7695 4.62 36.5562 4.94C37.3428 5.26 38.0162 5.72 38.5762 6.32L37.5762 7.54C37.0695 6.98 36.4828 6.57333 35.8162 6.32C35.1495 6.06667 34.4495 5.94 33.7162 5.94C32.9162 5.94 32.2562 6.13333 31.7362 6.52C31.2295 6.90667 30.9762 7.42 30.9762 8.06C30.9762 8.43333 31.0895 8.74 31.3162 8.98C31.5428 9.22 31.8362 9.42667 32.1962 9.6C32.5695 9.77333 32.9895 9.92667 33.4562 10.06C33.9362 10.18 34.4228 10.3133 34.9162 10.46C35.4228 10.5933 35.9095 10.7533 36.3762 10.94C36.8562 11.1267 37.2762 11.3667 37.6362 11.66C38.0095 11.9533 38.3095 12.3133 38.5362 12.74C38.7628 13.1667 38.8762 13.6933 38.8762 14.32C38.8762 14.8 38.7895 15.28 38.6162 15.76C38.4428 16.2267 38.1562 16.6467 37.7562 17.02C37.3695 17.38 36.8628 17.6733 36.2362 17.9C35.6095 18.1267 34.8495 18.24 33.9562 18.24ZM41.3549 18V4.66H46.7149C47.3816 4.66 47.9749 4.76667 48.4949 4.98C49.0149 5.19333 49.4483 5.48667 49.7949 5.86C50.1549 6.22 50.4283 6.64667 50.6149 7.14C50.8016 7.62 50.8949 8.13333 50.8949 8.68C50.8949 9.22667 50.8016 9.74667 50.6149 10.24C50.4283 10.72 50.1549 11.1467 49.7949 11.52C49.4349 11.88 48.9949 12.1667 48.4749 12.38C47.9549 12.5933 47.3683 12.7 46.7149 12.7H43.0149V18H41.3549ZM46.5149 11.22C47.3149 11.22 47.9549 10.9867 48.4349 10.52C48.9283 10.0533 49.1749 9.44 49.1749 8.68C49.1749 7.92 48.9283 7.30667 48.4349 6.84C47.9549 6.37333 47.3149 6.14 46.5149 6.14H43.0149V11.22H46.5149ZM59.1732 18.24C58.1865 18.24 57.2865 18.0667 56.4732 17.72C55.6599 17.3733 54.9599 16.8933 54.3732 16.28C53.7999 15.6533 53.3532 14.92 53.0332 14.08C52.7132 13.24 52.5532 12.3267 52.5532 11.34C52.5532 10.3533 52.7132 9.44 53.0332 8.6C53.3532 7.76 53.7999 7.03333 54.3732 6.42C54.9599 5.79333 55.6599 5.30667 56.4732 4.96C57.2865 4.61333 58.1865 4.44 59.1732 4.44C60.1599 4.44 61.0599 4.61333 61.8732 4.96C62.6865 5.30667 63.3799 5.79333 63.9532 6.42C64.5399 7.03333 64.9932 7.76 65.3132 8.6C65.6332 9.44 65.7932 10.3533 65.7932 11.34C65.7932 12.3267 65.6332 13.24 65.3132 14.08C64.9932 14.92 64.5399 15.6533 63.9532 16.28C63.3799 16.8933 62.6865 17.3733 61.8732 17.72C61.0599 18.0667 60.1599 18.24 59.1732 18.24ZM59.1732 16.76C59.9199 16.76 60.5932 16.6267 61.1932 16.36C61.7932 16.08 62.3065 15.7 62.7332 15.22C63.1599 14.7267 63.4865 14.1533 63.7132 13.5C63.9532 12.8333 64.0732 12.1133 64.0732 11.34C64.0732 10.5667 63.9532 9.84667 63.7132 9.18C63.4865 8.51333 63.1599 7.94 62.7332 7.46C62.3065 6.98 61.7932 6.60667 61.1932 6.34C60.5932 6.06 59.9199 5.92 59.1732 5.92C58.4265 5.92 57.7465 6.06 57.1332 6.34C56.5332 6.60667 56.0199 6.98 55.5932 7.46C55.1665 7.94 54.8399 8.51333 54.6132 9.18C54.3865 9.84667 54.2732 10.5667 54.2732 11.34C54.2732 12.1133 54.3865 12.8333 54.6132 13.5C54.8399 14.1533 55.1665 14.7267 55.5932 15.22C56.0199 15.7 56.5332 16.08 57.1332 16.36C57.7465 16.6267 58.4265 16.76 59.1732 16.76ZM76.1062 18L72.7062 12.7H70.0462V18H68.3862V4.66H73.7462C74.3595 4.66 74.9195 4.75333 75.4262 4.94C75.9328 5.12667 76.3728 5.4 76.7462 5.76C77.1195 6.10667 77.4062 6.52667 77.6062 7.02C77.8195 7.51333 77.9262 8.06667 77.9262 8.68C77.9262 9.28 77.8328 9.81333 77.6462 10.28C77.4595 10.7467 77.2062 11.14 76.8862 11.46C76.5662 11.78 76.1928 12.0333 75.7662 12.22C75.3528 12.4067 74.9195 12.52 74.4662 12.56L78.0662 18H76.1062ZM73.5462 11.24C74.3462 11.24 74.9862 11.0067 75.4662 10.54C75.9595 10.06 76.2062 9.44 76.2062 8.68C76.2062 7.92 75.9595 7.30667 75.4662 6.84C74.9862 6.37333 74.3462 6.14 73.5462 6.14H70.0462V11.24H73.5462ZM83.6588 18V6.14H79.4388V4.66H89.5588V6.14H85.3188V18H83.6588ZM91.7651 18V4.66H100.505V6.14H93.4251V10.44H100.365V11.92H93.4251V16.52H100.505V18H91.7651ZM110.872 18L107.472 12.7H104.812V18H103.152V4.66H108.512C109.125 4.66 109.685 4.75333 110.192 4.94C110.698 5.12667 111.138 5.4 111.512 5.76C111.885 6.10667 112.172 6.52667 112.372 7.02C112.585 7.51333 112.692 8.06667 112.692 8.68C112.692 9.28 112.598 9.81333 112.412 10.28C112.225 10.7467 111.972 11.14 111.652 11.46C111.332 11.78 110.958 12.0333 110.532 12.22C110.118 12.4067 109.685 12.52 109.232 12.56L112.832 18H110.872ZM108.312 11.24C109.112 11.24 109.752 11.0067 110.232 10.54C110.725 10.06 110.972 9.44 110.972 8.68C110.972 7.92 110.725 7.30667 110.232 6.84C109.752 6.37333 109.112 6.14 108.312 6.14H104.812V11.24H108.312ZM124.84 18L123.66 15.04H117.02L115.84 18H113.94L119.3 4.66H121.36L126.74 18H124.84ZM120.34 6.38L117.5 13.56H123.16L120.34 6.38Z" fill="white"/>
</svg>
