<svg width="148" height="30" viewBox="0 0 148 30" fill="none" xmlns="http://www.w3.org/2000/svg">
<path d="M34.1955 22.288C38.5155 22.288 40.3875 20.008 40.3875 17.344C40.3875 11.368 31.0755 13.216 31.0755 10.24C31.0755 9.04 32.1315 8.248 33.7875 8.248C35.4675 8.248 37.1715 8.824 38.4195 10.072L40.0275 7.984C38.5395 6.544 36.5235 5.752 34.0275 5.752C30.5235 5.752 28.1955 7.792 28.1955 10.432C28.1955 16.336 37.5315 14.248 37.5315 17.608C37.5315 18.664 36.6195 19.792 34.3155 19.792C32.0835 19.792 30.3555 18.76 29.2515 17.584L27.6915 19.744C29.1075 21.256 31.2435 22.288 34.1955 22.288ZM45.7815 22V16.024H50.0055C53.3415 16.024 55.2375 13.72 55.2375 11.008C55.2375 8.296 53.3655 5.992 50.0055 5.992H42.9735V22H45.7815ZM49.6215 13.552H45.7815V8.464H49.6215C51.2055 8.464 52.3575 9.472 52.3575 11.008C52.3575 12.544 51.2055 13.552 49.6215 13.552ZM65.0391 22.288C69.8391 22.288 73.2231 18.784 73.2231 14.008C73.2231 9.232 69.8391 5.728 65.0391 5.728C60.2391 5.728 56.8551 9.232 56.8551 14.008C56.8551 18.784 60.2391 22.288 65.0391 22.288ZM65.0391 19.792C61.7991 19.792 59.7351 17.296 59.7351 14.008C59.7351 10.696 61.7991 8.224 65.0391 8.224C68.2551 8.224 70.3431 10.696 70.3431 14.008C70.3431 17.296 68.2551 19.792 65.0391 19.792ZM88.3107 22L84.3987 15.712C86.3187 15.4 88.1907 13.864 88.1907 11.008C88.1907 8.056 86.1267 5.992 82.9587 5.992H75.9267V22H78.7347V16.024H81.5187L85.0707 22H88.3107ZM82.5747 13.552H78.7347V8.464H82.5747C84.1587 8.464 85.3107 9.472 85.3107 11.008C85.3107 12.544 84.1587 13.552 82.5747 13.552ZM97.3866 22V8.464H102.235V5.992H89.7306V8.464H94.5786V22H97.3866ZM115.582 22V19.528H107.422V15.088H115.414V12.616H107.422V8.464H115.582V5.992H104.614V22H115.582ZM130.85 22L126.938 15.712C128.858 15.4 130.73 13.864 130.73 11.008C130.73 8.056 128.666 5.992 125.498 5.992H118.466V22H121.274V16.024H124.058L127.61 22H130.85ZM125.114 13.552H121.274V8.464H125.114C126.698 8.464 127.85 9.472 127.85 11.008C127.85 12.544 126.698 13.552 125.114 13.552ZM147.936 22L141.648 5.992H138.144L131.856 22H135.048L136.224 18.928H143.568L144.744 22H147.936ZM142.776 16.456H137.016L139.896 8.824L142.776 16.456Z" fill="#008348"/>
<path d="M6.14905 4C6.26458 7.28375 8.87328 9.90909 12.0745 9.90909C15.2757 9.90909 17.8844 7.28375 18 4H6.14905Z" fill="#008348"/>
<path opacity="0.7" d="M0 9.90909H11.8509C11.7354 6.62534 9.12669 4 5.92547 4C2.72424 4 0.115528 6.62534 0 9.90909Z" fill="#008348"/>
<path d="M0 24H11.8509C11.7354 20.7163 9.12669 18.0909 5.92547 18.0909C2.72424 18.0909 0.115528 20.7163 0 24Z" fill="#008348"/>
<path opacity="0.7" d="M6.14905 18.0909C6.26458 21.3747 8.87328 24 12.0745 24C15.2757 24 17.8844 21.3747 18 18.0909H6.14905Z" fill="#008348"/>
<path d="M11.8509 11.0454C11.7354 14.3292 9.12669 16.9545 5.92547 16.9545C2.72424 16.9545 0.115528 14.3292 0 11.0454H11.8509Z" fill="#008348"/>
<path d="M18 16.9545H6.14905C6.26458 13.6708 8.87328 11.0454 12.0745 11.0454C15.2757 11.0454 17.8844 13.6708 18 16.9545Z" fill="#008348"/>
</svg>
